<?xml version="1.0" standalone="no"?>
<!DOCTYPE svg PUBLIC "-//W3C//DTD SVG 20010904//EN"
 "http://www.w3.org/TR/2001/REC-SVG-20010904/DTD/svg10.dtd">
<svg version="1.0" xmlns="http://www.w3.org/2000/svg"
 width="512.000000pt" height="512.000000pt" viewBox="0 0 512.000000 512.000000"
 preserveAspectRatio="xMidYMid meet">
<metadata>
Created by potrace 1.14, written by Peter Selinger 2001-2017
</metadata>
<g transform="translate(0.000000,512.000000) scale(0.100000,-0.100000)"
fill="#000000" stroke="none">
<path d="M2300 5004 c-195 -24 -279 -38 -390 -65 -460 -113 -859 -345 -1211
-705 -134 -138 -226 -250 -314 -384 -204 -311 -325 -647 -369 -1025 -16 -138
-18 -416 -5 -555 28 -289 109 -572 234 -821 129 -256 264 -440 484 -659 502
-500 1107 -748 1826 -747 691 0 1262 222 1764 684 397 366 654 820 750 1323
56 295 56 653 0 954 -105 563 -415 1064 -898 1452 -377 303 -736 456 -1266
539 -48 8 -555 15 -605 9z"/>
</g>
</svg>
